# xmcd CD database file
#
# Track frame offsets:
#	150
#	38410
#	61958
#	84899
#	111227
#	141085
#	158791
#	180147
#	196916
#
# Disc length: 2987 seconds
#
# Revision: 0
# Processed by: cddbd v1.5.2PL0 Copyright (c) Steve Scherf et al.
# Submitted via: CDex 1.70beta2
#
DISCID=630ba909
DTITLE=Søren Kristiansen - With A Song In My Heart
DYEAR=2007
DGENRE=Jazz
TTITLE0=What is this thing called love
TTITLE1=Detour ahead
TTITLE2=Missing link blues
TTITLE3=Archipelago
TTITLE4=When your lover has gone
TTITLE5=Tea with art
TTITLE6=I've got a crush on you
TTITLE7=Jeepers creepers
TTITLE8=With a song in my heart
EXTD=YEAR: 2007
EXTT0=
EXTT1=
EXTT2=
EXTT3=
EXTT4=
EXTT5=
EXTT6=
EXTT7=
EXTT8=
PLAYORDER=
